<?xml version="1.0" encoding="utf-8"?>
<svg version="1.1" baseProfile="tiny" xmlns="http://www.w3.org/2000/svg" xmlns:xlink="http://www.w3.org/1999/xlink"
	 x="0px" y="0px" width="650px" height="618.141px" viewBox="0 0 650 618.141" xml:space="preserve">
<g>
	<path fill="#FCBF10" d="M320.535,34.534c-0.306-4.418-0.917-13.256-0.917-13.256c3.1-2.085,5.144-5.627,5.144-9.646
		C324.762,5.212,319.555,0,313.134,0c-6.419,0-11.628,5.212-11.628,11.631c0,4.019,2.044,7.561,5.148,9.646l-0.921,13.256
		C315.026,34.362,311.249,34.362,320.535,34.534z"/>
	<path fill="#434445" d="M429.221,547.935h-0.23c-5.487,0-10.188,3.873-11.266,9.252c-4.508,22.467-25.101,39.176-49.217,37.568
		c-24.912-1.664-43.72-20.512-43.72-48.469V218.032c-0.011,0-0.021,0-0.032,0v-0.011c-0.005,0-0.009,0-0.009,0
		c-9.039-1.252-14.494-1.198-23.256,0c0,0-0.011,0-0.016,0l0.031,327.881c0,44.906,28.961,70.295,66.676,72.152
		c35.614,1.756,65.857-23.193,72.417-56.539C441.984,554.468,436.404,547.935,429.221,547.935z"/>
	<path fill="#EF4F32" d="M313.116,217.113V34.397C166.625,34.397,36.368,116.649,0,235.843c13.822-11.692,31.58-18.73,51.022-18.73
		c27.256,0,51.283,13.824,65.557,34.812c14.207-20.988,38.234-34.812,65.49-34.812c27.256,0,51.349,13.824,65.556,34.812
		C262.663,229.693,287.723,217.113,313.116,217.113z"/>
	<path fill="#EC2024" d="M313.116,34.397v182.716c25.846,0,50.728,12.875,65.555,34.812c14.21-20.988,38.239-34.812,65.49-34.812
		c27.323,0,51.353,13.824,65.556,34.812c14.215-20.988,38.238-34.812,65.496-34.812c19.5,0,37.263,7.038,51.018,18.73
		C588.357,111.723,453.441,34.397,313.116,34.397z"/>
	<g>
		<g>
			<g>
				<path fill="#006CB2" d="M633.825,214.603c-3.71-8.083-7.877-16.104-12.382-23.84l15.375-8.959
					c4.797,8.232,9.23,16.769,13.182,25.376L633.825,214.603z M606.819,168.211c-5.172-7.208-10.783-14.312-16.677-21.114
					l13.447-11.654c6.251,7.213,12.201,14.748,17.688,22.394L606.819,168.211z M571.618,127.536
					c-6.396-6.187-13.178-12.216-20.161-17.919l11.257-13.783c7.368,6.018,14.525,12.381,21.277,18.914L571.618,127.536z
					 M529.871,93.396c-7.336-5.064-15.018-9.938-22.828-14.485l8.949-15.379c8.207,4.775,16.276,9.896,23.988,15.221L529.871,93.396
					z M483.16,66.19c-8.049-3.91-16.381-7.593-24.772-10.945l6.604-16.524c8.784,3.509,17.515,7.368,25.946,11.464L483.16,66.19z
					 M432.881,46.092c-8.551-2.732-17.328-5.205-26.094-7.349l4.228-17.285c9.165,2.241,18.343,4.826,27.284,7.683L432.881,46.092z
					 M380.242,33.216c-8.869-1.531-17.91-2.775-26.867-3.695l1.816-17.702c9.362,0.961,18.81,2.26,28.078,3.862L380.242,33.216z"/>
			</g>
		</g>
	</g>
</g>
</svg>
